<svg id="visual" viewBox="0 0 900 600" width="900" height="600" xmlns="http://www.w3.org/2000/svg" xmlns:xlink="http://www.w3.org/1999/xlink" version="1.1"><rect x="0" y="0" width="900" height="600" fill="#212121"></rect><path d="M0 395L21.5 396.8C43 398.7 86 402.3 128.8 396.5C171.7 390.7 214.3 375.3 257.2 373.7C300 372 343 384 385.8 386.8C428.7 389.7 471.3 383.3 514.2 391.2C557 399 600 421 642.8 418.8C685.7 416.7 728.3 390.3 771.2 381.5C814 372.7 857 381.3 878.5 385.7L900 390L900 601L878.5 601C857 601 814 601 771.2 601C728.3 601 685.7 601 642.8 601C600 601 557 601 514.2 601C471.3 601 428.7 601 385.8 601C343 601 300 601 257.2 601C214.3 601 171.7 601 128.8 601C86 601 43 601 21.5 601L0 601Z" fill="#6b9edb"></path><path d="M0 471L21.5 464.8C43 458.7 86 446.3 128.8 445.7C171.7 445 214.3 456 257.2 449.3C300 442.7 343 418.3 385.8 413.7C428.7 409 471.3 424 514.2 431.5C557 439 600 439 642.8 442.7C685.7 446.3 728.3 453.7 771.2 446.3C814 439 857 417 878.5 406L900 395L900 601L878.5 601C857 601 814 601 771.2 601C728.3 601 685.7 601 642.8 601C600 601 557 601 514.2 601C471.3 601 428.7 601 385.8 601C343 601 300 601 257.2 601C214.3 601 171.7 601 128.8 601C86 601 43 601 21.5 601L0 601Z" fill="#81ace2"></path><path d="M0 462L21.5 459.3C43 456.7 86 451.3 128.8 449.3C171.7 447.3 214.3 448.7 257.2 450C300 451.3 343 452.7 385.8 461.3C428.7 470 471.3 486 514.2 490.3C557 494.7 600 487.3 642.8 488.7C685.7 490 728.3 500 771.2 499.3C814 498.7 857 487.3 878.5 481.7L900 476L900 601L878.5 601C857 601 814 601 771.2 601C728.3 601 685.7 601 642.8 601C600 601 557 601 514.2 601C471.3 601 428.7 601 385.8 601C343 601 300 601 257.2 601C214.3 601 171.7 601 128.8 601C86 601 43 601 21.5 601L0 601Z" fill="#96bbe8"></path><path d="M0 528L21.5 526.3C43 524.7 86 521.3 128.8 523.8C171.7 526.3 214.3 534.7 257.2 529.5C300 524.3 343 505.7 385.8 497.8C428.7 490 471.3 493 514.2 502.2C557 511.3 600 526.7 642.8 533.5C685.7 540.3 728.3 538.7 771.2 538.2C814 537.7 857 538.3 878.5 538.7L900 539L900 601L878.5 601C857 601 814 601 771.2 601C728.3 601 685.7 601 642.8 601C600 601 557 601 514.2 601C471.3 601 428.7 601 385.8 601C343 601 300 601 257.2 601C214.3 601 171.7 601 128.8 601C86 601 43 601 21.5 601L0 601Z" fill="#abcaef"></path><path d="M0 556L21.5 555.2C43 554.3 86 552.7 128.8 549.3C171.7 546 214.3 541 257.2 538.2C300 535.3 343 534.7 385.8 534.5C428.7 534.3 471.3 534.7 514.2 533.5C557 532.3 600 529.7 642.8 530.2C685.7 530.7 728.3 534.3 771.2 535C814 535.7 857 533.3 878.5 532.2L900 531L900 601L878.5 601C857 601 814 601 771.2 601C728.3 601 685.7 601 642.8 601C600 601 557 601 514.2 601C471.3 601 428.7 601 385.8 601C343 601 300 601 257.2 601C214.3 601 171.7 601 128.8 601C86 601 43 601 21.5 601L0 601Z" fill="#c1d9f5"></path></svg>