<svg id="visual" viewBox="0 0 900 600" width="900" height="600" xmlns="http://www.w3.org/2000/svg" xmlns:xlink="http://www.w3.org/1999/xlink" version="1.1"><rect x="0" y="0" width="900" height="600" fill="#212121"></rect><path d="M0 433L21.5 423C43 413 86 393 128.8 391C171.7 389 214.3 405 257.2 405.3C300 405.7 343 390.3 385.8 389.3C428.7 388.3 471.3 401.7 514.2 399.8C557 398 600 381 642.8 376C685.7 371 728.3 378 771.2 389.2C814 400.3 857 415.7 878.5 423.3L900 431L900 601L878.5 601C857 601 814 601 771.2 601C728.3 601 685.7 601 642.8 601C600 601 557 601 514.2 601C471.3 601 428.7 601 385.8 601C343 601 300 601 257.2 601C214.3 601 171.7 601 128.8 601C86 601 43 601 21.5 601L0 601Z" fill="#2d425c"></path><path d="M0 450L21.5 442.2C43 434.3 86 418.7 128.8 418.2C171.7 417.7 214.3 432.3 257.2 431.7C300 431 343 415 385.8 415.3C428.7 415.7 471.3 432.3 514.2 433.3C557 434.3 600 419.7 642.8 412.5C685.7 405.3 728.3 405.7 771.2 411.8C814 418 857 430 878.5 436L900 442L900 601L878.5 601C857 601 814 601 771.2 601C728.3 601 685.7 601 642.8 601C600 601 557 601 514.2 601C471.3 601 428.7 601 385.8 601C343 601 300 601 257.2 601C214.3 601 171.7 601 128.8 601C86 601 43 601 21.5 601L0 601Z" fill="#364f6e"></path><path d="M0 509L21.5 509C43 509 86 509 128.8 506C171.7 503 214.3 497 257.2 487.2C300 477.3 343 463.7 385.8 458.2C428.7 452.7 471.3 455.3 514.2 459.2C557 463 600 468 642.8 467.7C685.7 467.3 728.3 461.7 771.2 461.3C814 461 857 466 878.5 468.5L900 471L900 601L878.5 601C857 601 814 601 771.2 601C728.3 601 685.7 601 642.8 601C600 601 557 601 514.2 601C471.3 601 428.7 601 385.8 601C343 601 300 601 257.2 601C214.3 601 171.7 601 128.8 601C86 601 43 601 21.5 601L0 601Z" fill="#3f5d81"></path><path d="M0 487L21.5 493.5C43 500 86 513 128.8 520C171.7 527 214.3 528 257.2 522.2C300 516.3 343 503.7 385.8 496.5C428.7 489.3 471.3 487.7 514.2 492.5C557 497.3 600 508.7 642.8 513.2C685.7 517.7 728.3 515.3 771.2 518C814 520.7 857 528.3 878.5 532.2L900 536L900 601L878.5 601C857 601 814 601 771.2 601C728.3 601 685.7 601 642.8 601C600 601 557 601 514.2 601C471.3 601 428.7 601 385.8 601C343 601 300 601 257.2 601C214.3 601 171.7 601 128.8 601C86 601 43 601 21.5 601L0 601Z" fill="#486b94"></path><path d="M0 547L21.5 548C43 549 86 551 128.8 549.5C171.7 548 214.3 543 257.2 543.8C300 544.7 343 551.3 385.8 553C428.7 554.7 471.3 551.3 514.2 552.2C557 553 600 558 642.8 561.3C685.7 564.7 728.3 566.3 771.2 565.5C814 564.7 857 561.3 878.5 559.7L900 558L900 601L878.5 601C857 601 814 601 771.2 601C728.3 601 685.7 601 642.8 601C600 601 557 601 514.2 601C471.3 601 428.7 601 385.8 601C343 601 300 601 257.2 601C214.3 601 171.7 601 128.8 601C86 601 43 601 21.5 601L0 601Z" fill="#5279a8"></path></svg>