<svg id="visual" viewBox="0 0 900 600" width="900" height="600" xmlns="http://www.w3.org/2000/svg" xmlns:xlink="http://www.w3.org/1999/xlink" version="1.1"><rect x="0" y="0" width="900" height="600" fill="#212121"></rect><path d="M0 391L21.5 393.5C43 396 86 401 128.8 395.7C171.7 390.3 214.3 374.7 257.2 375.2C300 375.7 343 392.3 385.8 404.7C428.7 417 471.3 425 514.2 419C557 413 600 393 642.8 381.5C685.7 370 728.3 367 771.2 367.5C814 368 857 372 878.5 374L900 376L900 601L878.5 601C857 601 814 601 771.2 601C728.3 601 685.7 601 642.8 601C600 601 557 601 514.2 601C471.3 601 428.7 601 385.8 601C343 601 300 601 257.2 601C214.3 601 171.7 601 128.8 601C86 601 43 601 21.5 601L0 601Z" fill="#6b9edb"></path><path d="M0 480L21.5 472.3C43 464.7 86 449.3 128.8 449.2C171.7 449 214.3 464 257.2 459.5C300 455 343 431 385.8 421.3C428.7 411.7 471.3 416.3 514.2 417.3C557 418.3 600 415.7 642.8 424C685.7 432.3 728.3 451.7 771.2 453C814 454.3 857 437.7 878.5 429.3L900 421L900 601L878.5 601C857 601 814 601 771.2 601C728.3 601 685.7 601 642.8 601C600 601 557 601 514.2 601C471.3 601 428.7 601 385.8 601C343 601 300 601 257.2 601C214.3 601 171.7 601 128.8 601C86 601 43 601 21.5 601L0 601Z" fill="#6494ce"></path><path d="M0 469L21.5 475.2C43 481.3 86 493.7 128.8 497.7C171.7 501.7 214.3 497.3 257.2 490.7C300 484 343 475 385.8 467.5C428.7 460 471.3 454 514.2 455.7C557 457.3 600 466.7 642.8 470.2C685.7 473.7 728.3 471.3 771.2 467.7C814 464 857 459 878.5 456.5L900 454L900 601L878.5 601C857 601 814 601 771.2 601C728.3 601 685.7 601 642.8 601C600 601 557 601 514.2 601C471.3 601 428.7 601 385.8 601C343 601 300 601 257.2 601C214.3 601 171.7 601 128.8 601C86 601 43 601 21.5 601L0 601Z" fill="#5e8bc1"></path><path d="M0 520L21.5 516C43 512 86 504 128.8 500C171.7 496 214.3 496 257.2 497C300 498 343 500 385.8 500.7C428.7 501.3 471.3 500.7 514.2 500.3C557 500 600 500 642.8 504.8C685.7 509.7 728.3 519.3 771.2 526.3C814 533.3 857 537.7 878.5 539.8L900 542L900 601L878.5 601C857 601 814 601 771.2 601C728.3 601 685.7 601 642.8 601C600 601 557 601 514.2 601C471.3 601 428.7 601 385.8 601C343 601 300 601 257.2 601C214.3 601 171.7 601 128.8 601C86 601 43 601 21.5 601L0 601Z" fill="#5882b4"></path><path d="M0 547L21.5 545.2C43 543.3 86 539.7 128.8 537.5C171.7 535.3 214.3 534.7 257.2 535.7C300 536.7 343 539.3 385.8 539C428.7 538.7 471.3 535.3 514.2 538.2C557 541 600 550 642.8 554.3C685.7 558.7 728.3 558.3 771.2 555.8C814 553.3 857 548.7 878.5 546.3L900 544L900 601L878.5 601C857 601 814 601 771.2 601C728.3 601 685.7 601 642.8 601C600 601 557 601 514.2 601C471.3 601 428.7 601 385.8 601C343 601 300 601 257.2 601C214.3 601 171.7 601 128.8 601C86 601 43 601 21.5 601L0 601Z" fill="#5279a8"></path></svg>