<svg id="visual" viewBox="0 0 900 600" width="900" height="600" xmlns="http://www.w3.org/2000/svg" xmlns:xlink="http://www.w3.org/1999/xlink" version="1.1"><rect x="0" y="0" width="900" height="600" fill="#212121"></rect><path d="M0 391L21.5 386.3C43 381.7 86 372.3 128.8 379.5C171.7 386.7 214.3 410.3 257.2 417.8C300 425.3 343 416.7 385.8 414.2C428.7 411.7 471.3 415.3 514.2 410.2C557 405 600 391 642.8 381C685.7 371 728.3 365 771.2 371.3C814 377.7 857 396.3 878.5 405.7L900 415L900 601L878.5 601C857 601 814 601 771.2 601C728.3 601 685.7 601 642.8 601C600 601 557 601 514.2 601C471.3 601 428.7 601 385.8 601C343 601 300 601 257.2 601C214.3 601 171.7 601 128.8 601C86 601 43 601 21.5 601L0 601Z" fill="#ffffff"></path><path d="M0 454L21.5 449C43 444 86 434 128.8 429.3C171.7 424.7 214.3 425.3 257.2 430C300 434.7 343 443.3 385.8 445.5C428.7 447.7 471.3 443.3 514.2 440.3C557 437.3 600 435.7 642.8 435.5C685.7 435.3 728.3 436.7 771.2 436.7C814 436.7 857 435.3 878.5 434.7L900 434L900 601L878.5 601C857 601 814 601 771.2 601C728.3 601 685.7 601 642.8 601C600 601 557 601 514.2 601C471.3 601 428.7 601 385.8 601C343 601 300 601 257.2 601C214.3 601 171.7 601 128.8 601C86 601 43 601 21.5 601L0 601Z" fill="#f0f5fd"></path><path d="M0 493L21.5 496C43 499 86 505 128.8 504.3C171.7 503.7 214.3 496.3 257.2 487.7C300 479 343 469 385.8 472.3C428.7 475.7 471.3 492.3 514.2 489.5C557 486.7 600 464.3 642.8 460.3C685.7 456.3 728.3 470.7 771.2 472.8C814 475 857 465 878.5 460L900 455L900 601L878.5 601C857 601 814 601 771.2 601C728.3 601 685.7 601 642.8 601C600 601 557 601 514.2 601C471.3 601 428.7 601 385.8 601C343 601 300 601 257.2 601C214.3 601 171.7 601 128.8 601C86 601 43 601 21.5 601L0 601Z" fill="#e0ecfa"></path><path d="M0 524L21.5 516.8C43 509.7 86 495.3 128.8 488.7C171.7 482 214.3 483 257.2 492C300 501 343 518 385.8 520.5C428.7 523 471.3 511 514.2 508C557 505 600 511 642.8 517C685.7 523 728.3 529 771.2 529.5C814 530 857 525 878.5 522.5L900 520L900 601L878.5 601C857 601 814 601 771.2 601C728.3 601 685.7 601 642.8 601C600 601 557 601 514.2 601C471.3 601 428.7 601 385.8 601C343 601 300 601 257.2 601C214.3 601 171.7 601 128.8 601C86 601 43 601 21.5 601L0 601Z" fill="#d1e2f8"></path><path d="M0 531L21.5 530.3C43 529.7 86 528.3 128.8 532.8C171.7 537.3 214.3 547.7 257.2 553.5C300 559.3 343 560.7 385.8 557.8C428.7 555 471.3 548 514.2 545.7C557 543.3 600 545.7 642.8 543.3C685.7 541 728.3 534 771.2 538C814 542 857 557 878.5 564.5L900 572L900 601L878.5 601C857 601 814 601 771.2 601C728.3 601 685.7 601 642.8 601C600 601 557 601 514.2 601C471.3 601 428.7 601 385.8 601C343 601 300 601 257.2 601C214.3 601 171.7 601 128.8 601C86 601 43 601 21.5 601L0 601Z" fill="#c1d9f5"></path></svg>