<svg id="visual" viewBox="0 0 900 600" width="900" height="600" xmlns="http://www.w3.org/2000/svg" xmlns:xlink="http://www.w3.org/1999/xlink" version="1.1"><rect x="0" y="0" width="900" height="600" fill="#212121"></rect><path d="M0 384L21.5 383.3C43 382.7 86 381.3 128.8 382.5C171.7 383.7 214.3 387.3 257.2 390.2C300 393 343 395 385.8 396.3C428.7 397.7 471.3 398.3 514.2 406.5C557 414.7 600 430.3 642.8 433.8C685.7 437.3 728.3 428.7 771.2 421.3C814 414 857 408 878.5 405L900 402L900 601L878.5 601C857 601 814 601 771.2 601C728.3 601 685.7 601 642.8 601C600 601 557 601 514.2 601C471.3 601 428.7 601 385.8 601C343 601 300 601 257.2 601C214.3 601 171.7 601 128.8 601C86 601 43 601 21.5 601L0 601Z" fill="#2d425c"></path><path d="M0 400L21.5 408.8C43 417.7 86 435.3 128.8 441.5C171.7 447.7 214.3 442.3 257.2 433.3C300 424.3 343 411.7 385.8 408.8C428.7 406 471.3 413 514.2 425.5C557 438 600 456 642.8 460C685.7 464 728.3 454 771.2 451.5C814 449 857 454 878.5 456.5L900 459L900 601L878.5 601C857 601 814 601 771.2 601C728.3 601 685.7 601 642.8 601C600 601 557 601 514.2 601C471.3 601 428.7 601 385.8 601C343 601 300 601 257.2 601C214.3 601 171.7 601 128.8 601C86 601 43 601 21.5 601L0 601Z" fill="#364f6e"></path><path d="M0 488L21.5 482C43 476 86 464 128.8 460.8C171.7 457.7 214.3 463.3 257.2 470.2C300 477 343 485 385.8 482.5C428.7 480 471.3 467 514.2 460.2C557 453.3 600 452.7 642.8 455.7C685.7 458.7 728.3 465.3 771.2 466.3C814 467.3 857 462.7 878.5 460.3L900 458L900 601L878.5 601C857 601 814 601 771.2 601C728.3 601 685.7 601 642.8 601C600 601 557 601 514.2 601C471.3 601 428.7 601 385.8 601C343 601 300 601 257.2 601C214.3 601 171.7 601 128.8 601C86 601 43 601 21.5 601L0 601Z" fill="#3f5d81"></path><path d="M0 527L21.5 525.8C43 524.7 86 522.3 128.8 524.8C171.7 527.3 214.3 534.7 257.2 530C300 525.3 343 508.7 385.8 505.7C428.7 502.7 471.3 513.3 514.2 512.8C557 512.3 600 500.7 642.8 497.5C685.7 494.3 728.3 499.7 771.2 499.5C814 499.3 857 493.7 878.5 490.8L900 488L900 601L878.5 601C857 601 814 601 771.2 601C728.3 601 685.7 601 642.8 601C600 601 557 601 514.2 601C471.3 601 428.7 601 385.8 601C343 601 300 601 257.2 601C214.3 601 171.7 601 128.8 601C86 601 43 601 21.5 601L0 601Z" fill="#486b94"></path><path d="M0 540L21.5 542.2C43 544.3 86 548.7 128.8 551C171.7 553.3 214.3 553.7 257.2 550.7C300 547.7 343 541.3 385.8 539C428.7 536.7 471.3 538.3 514.2 538C557 537.7 600 535.3 642.8 540.3C685.7 545.3 728.3 557.7 771.2 558.2C814 558.7 857 547.3 878.5 541.7L900 536L900 601L878.5 601C857 601 814 601 771.2 601C728.3 601 685.7 601 642.8 601C600 601 557 601 514.2 601C471.3 601 428.7 601 385.8 601C343 601 300 601 257.2 601C214.3 601 171.7 601 128.8 601C86 601 43 601 21.5 601L0 601Z" fill="#5279a8"></path></svg>