<svg id="visual" viewBox="0 0 900 600" width="900" height="600" xmlns="http://www.w3.org/2000/svg" xmlns:xlink="http://www.w3.org/1999/xlink" version="1.1"><rect x="0" y="0" width="900" height="600" fill="#212121"></rect><path d="M0 420L21.5 411.7C43 403.3 86 386.7 128.8 386.5C171.7 386.3 214.3 402.7 257.2 407.2C300 411.7 343 404.3 385.8 399.8C428.7 395.3 471.3 393.7 514.2 400.8C557 408 600 424 642.8 430.2C685.7 436.3 728.3 432.7 771.2 424.8C814 417 857 405 878.5 399L900 393L900 601L878.5 601C857 601 814 601 771.2 601C728.3 601 685.7 601 642.8 601C600 601 557 601 514.2 601C471.3 601 428.7 601 385.8 601C343 601 300 601 257.2 601C214.3 601 171.7 601 128.8 601C86 601 43 601 21.5 601L0 601Z" fill="#6b9edb"></path><path d="M0 439L21.5 432.2C43 425.3 86 411.7 128.8 408.5C171.7 405.3 214.3 412.7 257.2 414.3C300 416 343 412 385.8 411.3C428.7 410.7 471.3 413.3 514.2 415.7C557 418 600 420 642.8 429.8C685.7 439.7 728.3 457.3 771.2 460.7C814 464 857 453 878.5 447.5L900 442L900 601L878.5 601C857 601 814 601 771.2 601C728.3 601 685.7 601 642.8 601C600 601 557 601 514.2 601C471.3 601 428.7 601 385.8 601C343 601 300 601 257.2 601C214.3 601 171.7 601 128.8 601C86 601 43 601 21.5 601L0 601Z" fill="#6494ce"></path><path d="M0 449L21.5 457C43 465 86 481 128.8 486.8C171.7 492.7 214.3 488.3 257.2 482.5C300 476.7 343 469.3 385.8 472C428.7 474.7 471.3 487.3 514.2 486.3C557 485.3 600 470.7 642.8 464.7C685.7 458.7 728.3 461.3 771.2 462.5C814 463.7 857 463.3 878.5 463.2L900 463L900 601L878.5 601C857 601 814 601 771.2 601C728.3 601 685.7 601 642.8 601C600 601 557 601 514.2 601C471.3 601 428.7 601 385.8 601C343 601 300 601 257.2 601C214.3 601 171.7 601 128.8 601C86 601 43 601 21.5 601L0 601Z" fill="#5e8bc1"></path><path d="M0 494L21.5 492.8C43 491.7 86 489.3 128.8 488C171.7 486.7 214.3 486.3 257.2 492.5C300 498.7 343 511.3 385.8 510.3C428.7 509.3 471.3 494.7 514.2 496.8C557 499 600 518 642.8 524.5C685.7 531 728.3 525 771.2 515.7C814 506.3 857 493.7 878.5 487.3L900 481L900 601L878.5 601C857 601 814 601 771.2 601C728.3 601 685.7 601 642.8 601C600 601 557 601 514.2 601C471.3 601 428.7 601 385.8 601C343 601 300 601 257.2 601C214.3 601 171.7 601 128.8 601C86 601 43 601 21.5 601L0 601Z" fill="#5882b4"></path><path d="M0 554L21.5 556C43 558 86 562 128.8 557C171.7 552 214.3 538 257.2 538.3C300 538.7 343 553.3 385.8 556.3C428.7 559.3 471.3 550.7 514.2 545C557 539.3 600 536.7 642.8 540.2C685.7 543.7 728.3 553.3 771.2 552.7C814 552 857 541 878.5 535.5L900 530L900 601L878.5 601C857 601 814 601 771.2 601C728.3 601 685.7 601 642.8 601C600 601 557 601 514.2 601C471.3 601 428.7 601 385.8 601C343 601 300 601 257.2 601C214.3 601 171.7 601 128.8 601C86 601 43 601 21.5 601L0 601Z" fill="#5279a8"></path></svg>