<svg id="visual" viewBox="0 0 900 600" width="900" height="600" xmlns="http://www.w3.org/2000/svg" xmlns:xlink="http://www.w3.org/1999/xlink" version="1.1"><rect x="0" y="0" width="900" height="600" fill="#212121"></rect><path d="M0 372L21.5 380.8C43 389.7 86 407.3 128.8 404.7C171.7 402 214.3 379 257.2 374.8C300 370.7 343 385.3 385.8 397C428.7 408.7 471.3 417.3 514.2 416.3C557 415.3 600 404.7 642.8 401.2C685.7 397.7 728.3 401.3 771.2 408C814 414.7 857 424.3 878.5 429.2L900 434L900 601L878.5 601C857 601 814 601 771.2 601C728.3 601 685.7 601 642.8 601C600 601 557 601 514.2 601C471.3 601 428.7 601 385.8 601C343 601 300 601 257.2 601C214.3 601 171.7 601 128.8 601C86 601 43 601 21.5 601L0 601Z" fill="#6b9edb"></path><path d="M0 448L21.5 442.3C43 436.7 86 425.3 128.8 429.3C171.7 433.3 214.3 452.7 257.2 453.8C300 455 343 438 385.8 435.8C428.7 433.7 471.3 446.3 514.2 452C557 457.7 600 456.3 642.8 445.5C685.7 434.7 728.3 414.3 771.2 417.7C814 421 857 448 878.5 461.5L900 475L900 601L878.5 601C857 601 814 601 771.2 601C728.3 601 685.7 601 642.8 601C600 601 557 601 514.2 601C471.3 601 428.7 601 385.8 601C343 601 300 601 257.2 601C214.3 601 171.7 601 128.8 601C86 601 43 601 21.5 601L0 601Z" fill="#81ace2"></path><path d="M0 507L21.5 500.2C43 493.3 86 479.7 128.8 468C171.7 456.3 214.3 446.7 257.2 452.7C300 458.7 343 480.3 385.8 485.5C428.7 490.7 471.3 479.3 514.2 473.8C557 468.3 600 468.7 642.8 475C685.7 481.3 728.3 493.7 771.2 491.5C814 489.3 857 472.7 878.5 464.3L900 456L900 601L878.5 601C857 601 814 601 771.2 601C728.3 601 685.7 601 642.8 601C600 601 557 601 514.2 601C471.3 601 428.7 601 385.8 601C343 601 300 601 257.2 601C214.3 601 171.7 601 128.8 601C86 601 43 601 21.5 601L0 601Z" fill="#96bbe8"></path><path d="M0 534L21.5 528.5C43 523 86 512 128.8 508.2C171.7 504.3 214.3 507.7 257.2 514.5C300 521.3 343 531.7 385.8 531.7C428.7 531.7 471.3 521.3 514.2 515.2C557 509 600 507 642.8 506C685.7 505 728.3 505 771.2 510.7C814 516.3 857 527.7 878.5 533.3L900 539L900 601L878.5 601C857 601 814 601 771.2 601C728.3 601 685.7 601 642.8 601C600 601 557 601 514.2 601C471.3 601 428.7 601 385.8 601C343 601 300 601 257.2 601C214.3 601 171.7 601 128.8 601C86 601 43 601 21.5 601L0 601Z" fill="#abcaef"></path><path d="M0 548L21.5 545C43 542 86 536 128.8 532.7C171.7 529.3 214.3 528.7 257.2 535.2C300 541.7 343 555.3 385.8 557.8C428.7 560.3 471.3 551.7 514.2 551.3C557 551 600 559 642.8 558.3C685.7 557.7 728.3 548.3 771.2 546.7C814 545 857 551 878.5 554L900 557L900 601L878.5 601C857 601 814 601 771.2 601C728.3 601 685.7 601 642.8 601C600 601 557 601 514.2 601C471.3 601 428.7 601 385.8 601C343 601 300 601 257.2 601C214.3 601 171.7 601 128.8 601C86 601 43 601 21.5 601L0 601Z" fill="#c1d9f5"></path></svg>