<svg id="visual" viewBox="0 0 900 600" width="900" height="600" xmlns="http://www.w3.org/2000/svg" xmlns:xlink="http://www.w3.org/1999/xlink" version="1.1"><rect x="0" y="0" width="900" height="600" fill="#212121"></rect><path d="M0 417L21.5 414.7C43 412.3 86 407.7 128.8 404.8C171.7 402 214.3 401 257.2 405.2C300 409.3 343 418.7 385.8 413.8C428.7 409 471.3 390 514.2 392C557 394 600 417 642.8 416.8C685.7 416.7 728.3 393.3 771.2 387.8C814 382.3 857 394.7 878.5 400.8L900 407L900 601L878.5 601C857 601 814 601 771.2 601C728.3 601 685.7 601 642.8 601C600 601 557 601 514.2 601C471.3 601 428.7 601 385.8 601C343 601 300 601 257.2 601C214.3 601 171.7 601 128.8 601C86 601 43 601 21.5 601L0 601Z" fill="#c1d9f5"></path><path d="M0 450L21.5 449.8C43 449.7 86 449.3 128.8 442.3C171.7 435.3 214.3 421.7 257.2 420.7C300 419.7 343 431.3 385.8 438.2C428.7 445 471.3 447 514.2 444.3C557 441.7 600 434.3 642.8 434C685.7 433.7 728.3 440.3 771.2 438.7C814 437 857 427 878.5 422L900 417L900 601L878.5 601C857 601 814 601 771.2 601C728.3 601 685.7 601 642.8 601C600 601 557 601 514.2 601C471.3 601 428.7 601 385.8 601C343 601 300 601 257.2 601C214.3 601 171.7 601 128.8 601C86 601 43 601 21.5 601L0 601Z" fill="#d1e2f8"></path><path d="M0 502L21.5 493.3C43 484.7 86 467.3 128.8 467C171.7 466.7 214.3 483.3 257.2 490.7C300 498 343 496 385.8 497.2C428.7 498.3 471.3 502.7 514.2 504.2C557 505.7 600 504.3 642.8 493.7C685.7 483 728.3 463 771.2 455C814 447 857 451 878.5 453L900 455L900 601L878.5 601C857 601 814 601 771.2 601C728.3 601 685.7 601 642.8 601C600 601 557 601 514.2 601C471.3 601 428.7 601 385.8 601C343 601 300 601 257.2 601C214.3 601 171.7 601 128.8 601C86 601 43 601 21.5 601L0 601Z" fill="#e0ecfa"></path><path d="M0 541L21.5 533.7C43 526.3 86 511.7 128.8 507.5C171.7 503.3 214.3 509.7 257.2 515.3C300 521 343 526 385.8 522.7C428.7 519.3 471.3 507.7 514.2 503.5C557 499.3 600 502.7 642.8 501.7C685.7 500.7 728.3 495.3 771.2 497.5C814 499.7 857 509.3 878.5 514.2L900 519L900 601L878.5 601C857 601 814 601 771.2 601C728.3 601 685.7 601 642.8 601C600 601 557 601 514.2 601C471.3 601 428.7 601 385.8 601C343 601 300 601 257.2 601C214.3 601 171.7 601 128.8 601C86 601 43 601 21.5 601L0 601Z" fill="#f0f5fd"></path><path d="M0 549L21.5 548.3C43 547.7 86 546.3 128.8 543.2C171.7 540 214.3 535 257.2 536.2C300 537.3 343 544.7 385.8 551.3C428.7 558 471.3 564 514.2 563.8C557 563.7 600 557.3 642.8 557.2C685.7 557 728.3 563 771.2 562.2C814 561.3 857 553.7 878.5 549.8L900 546L900 601L878.5 601C857 601 814 601 771.2 601C728.3 601 685.7 601 642.8 601C600 601 557 601 514.2 601C471.3 601 428.7 601 385.8 601C343 601 300 601 257.2 601C214.3 601 171.7 601 128.8 601C86 601 43 601 21.5 601L0 601Z" fill="#ffffff"></path></svg>