<svg id="visual" viewBox="0 0 900 600" width="900" height="600" xmlns="http://www.w3.org/2000/svg" xmlns:xlink="http://www.w3.org/1999/xlink" version="1.1"><rect x="0" y="0" width="900" height="600" fill="#212121"></rect><path d="M0 420L21.5 415C43 410 86 400 128.8 398.8C171.7 397.7 214.3 405.3 257.2 407.7C300 410 343 407 385.8 397.2C428.7 387.3 471.3 370.7 514.2 365C557 359.3 600 364.7 642.8 370.2C685.7 375.7 728.3 381.3 771.2 382.3C814 383.3 857 379.7 878.5 377.8L900 376L900 601L878.5 601C857 601 814 601 771.2 601C728.3 601 685.7 601 642.8 601C600 601 557 601 514.2 601C471.3 601 428.7 601 385.8 601C343 601 300 601 257.2 601C214.3 601 171.7 601 128.8 601C86 601 43 601 21.5 601L0 601Z" fill="#c1d9f5"></path><path d="M0 457L21.5 452.8C43 448.7 86 440.3 128.8 440.3C171.7 440.3 214.3 448.7 257.2 447.8C300 447 343 437 385.8 436.7C428.7 436.3 471.3 445.7 514.2 453.8C557 462 600 469 642.8 472.8C685.7 476.7 728.3 477.3 771.2 470.3C814 463.3 857 448.7 878.5 441.3L900 434L900 601L878.5 601C857 601 814 601 771.2 601C728.3 601 685.7 601 642.8 601C600 601 557 601 514.2 601C471.3 601 428.7 601 385.8 601C343 601 300 601 257.2 601C214.3 601 171.7 601 128.8 601C86 601 43 601 21.5 601L0 601Z" fill="#d1e2f8"></path><path d="M0 479L21.5 482.7C43 486.3 86 493.7 128.8 495.7C171.7 497.7 214.3 494.3 257.2 486.3C300 478.3 343 465.7 385.8 462.5C428.7 459.3 471.3 465.7 514.2 464.7C557 463.7 600 455.3 642.8 457C685.7 458.7 728.3 470.3 771.2 478.5C814 486.7 857 491.3 878.5 493.7L900 496L900 601L878.5 601C857 601 814 601 771.2 601C728.3 601 685.7 601 642.8 601C600 601 557 601 514.2 601C471.3 601 428.7 601 385.8 601C343 601 300 601 257.2 601C214.3 601 171.7 601 128.8 601C86 601 43 601 21.5 601L0 601Z" fill="#e0ecfa"></path><path d="M0 500L21.5 504.7C43 509.3 86 518.7 128.8 525.3C171.7 532 214.3 536 257.2 535.5C300 535 343 530 385.8 528.7C428.7 527.3 471.3 529.7 514.2 530C557 530.3 600 528.7 642.8 527.3C685.7 526 728.3 525 771.2 524.7C814 524.3 857 524.7 878.5 524.8L900 525L900 601L878.5 601C857 601 814 601 771.2 601C728.3 601 685.7 601 642.8 601C600 601 557 601 514.2 601C471.3 601 428.7 601 385.8 601C343 601 300 601 257.2 601C214.3 601 171.7 601 128.8 601C86 601 43 601 21.5 601L0 601Z" fill="#f0f5fd"></path><path d="M0 542L21.5 539.3C43 536.7 86 531.3 128.8 528.8C171.7 526.3 214.3 526.7 257.2 532C300 537.3 343 547.7 385.8 550C428.7 552.3 471.3 546.7 514.2 549.2C557 551.7 600 562.3 642.8 567.2C685.7 572 728.3 571 771.2 566.7C814 562.3 857 554.7 878.5 550.8L900 547L900 601L878.5 601C857 601 814 601 771.2 601C728.3 601 685.7 601 642.8 601C600 601 557 601 514.2 601C471.3 601 428.7 601 385.8 601C343 601 300 601 257.2 601C214.3 601 171.7 601 128.8 601C86 601 43 601 21.5 601L0 601Z" fill="#ffffff"></path></svg>